<svg xmlns="http://www.w3.org/2000/svg" version="1.1" xmlns:xlink="http://www.w3.org/1999/xlink" width="1000" height="1000"><metadata><rdf:RDF xmlns:rdf="http://www.w3.org/1999/02/22-rdf-syntax-ns#" xmlns:dc="http://purl.org/dc/elements/1.1/"><rdf:Description><dc:creator>RealFaviconGenerator</dc:creator><dc:source>https://realfavicongenerator.net</dc:source></rdf:Description></rdf:RDF></metadata><style>
    #light-icon {
      display: inline;
    }
    #dark-icon {
      display: none;
    }

    @media (prefers-color-scheme: dark) {
      #light-icon {
        display: none;
      }
      #dark-icon {
        display: inline;
      }
    }
  </style><g id="light-icon"><svg xmlns="http://www.w3.org/2000/svg" version="1.1" xmlns:xlink="http://www.w3.org/1999/xlink" width="1000" height="1000"><g clip-path="url(#SvgjsClipPath1045)"><rect width="1000" height="1000" fill="#e7625d"></rect><g transform="matrix(0.87890625,0,0,0.87890625,50,50)"><svg xmlns="http://www.w3.org/2000/svg" width="1024" height="1024" viewBox="0 0 1024 1024" fill="none"><path d="M510.052 455.98V572.646M377.26 264.093C414.952 237.96 460.713 222.646 510.052 222.646C638.919 222.646 743.385 327.113 743.385 455.98V492.049M288.861 381.49C280.987 404.882 276.719 429.932 276.719 455.98V572.646C276.719 678.663 347.423 768.166 444.251 796.573M733.434 640.276C712.158 710.644 658.542 766.972 589.874 791.969M577.863 343.581C558.072 331.616 534.866 324.73 510.052 324.73C437.565 324.73 378.802 383.492 378.802 455.98V542.021M641.302 486.313V572.646C641.302 645.134 582.539 703.896 510.052 703.896C485.3 703.896 462.148 697.044 442.389 685.134" stroke="white" stroke-width="58.3333" stroke-linecap="round" stroke-linejoin="round"></path></svg></g></g><defs><clipPath id="SvgjsClipPath1045"><rect width="1000" height="1000" x="0" y="0" rx="350" ry="350"></rect></clipPath></defs></svg></g><g id="dark-icon"><svg xmlns="http://www.w3.org/2000/svg" version="1.1" xmlns:xlink="http://www.w3.org/1999/xlink" width="1000" height="1000"><g clip-path="url(#SvgjsClipPath1046)"><rect width="1000" height="1000" fill="#e7625d"></rect><g transform="matrix(0.87890625,0,0,0.87890625,50,50)"><svg xmlns="http://www.w3.org/2000/svg" width="1024" height="1024" viewBox="0 0 1024 1024" fill="none"><path d="M510.052 455.98V572.646M377.26 264.093C414.952 237.96 460.713 222.646 510.052 222.646C638.919 222.646 743.385 327.113 743.385 455.98V492.049M288.861 381.49C280.987 404.882 276.719 429.932 276.719 455.98V572.646C276.719 678.663 347.423 768.166 444.251 796.573M733.434 640.276C712.158 710.644 658.542 766.972 589.874 791.969M577.863 343.581C558.072 331.616 534.866 324.73 510.052 324.73C437.565 324.73 378.802 383.492 378.802 455.98V542.021M641.302 486.313V572.646C641.302 645.134 582.539 703.896 510.052 703.896C485.3 703.896 462.148 697.044 442.389 685.134" stroke="white" stroke-width="58.3333" stroke-linecap="round" stroke-linejoin="round"></path></svg></g></g><defs><clipPath id="SvgjsClipPath1046"><rect width="1000" height="1000" x="0" y="0" rx="350" ry="350"></rect></clipPath></defs></svg></g></svg>