<svg width="3537" height="1024" viewBox="0 0 3537 1024" fill="none" xmlns="http://www.w3.org/2000/svg">
<path d="M1387.62 739.976C1361.89 739.976 1343.65 732.68 1332.9 718.088C1322.53 703.112 1317.35 680.648 1317.35 650.696C1317.35 632.264 1320.23 604.808 1325.99 568.328C1331.75 531.848 1340 484.04 1350.75 424.904C1341.92 426.056 1330.59 427.784 1316.77 430.088C1303.33 432.392 1289.7 434.888 1275.87 437.576C1262.05 439.88 1250.53 442.184 1241.31 444.488C1239.01 437.192 1237.67 430.088 1237.28 423.176C1236.9 416.264 1236.71 410.888 1236.71 407.048C1236.71 385.16 1240.55 367.304 1248.23 353.48C1256.29 339.656 1266.85 329.48 1279.91 322.952C1292.96 316.424 1307.17 313.16 1322.53 313.16C1342.11 313.16 1361.51 315.08 1380.71 318.92C1399.91 322.376 1419.11 326.024 1438.31 329.864C1457.89 333.704 1477.86 336.008 1498.21 336.776C1512.42 334.088 1528.16 330.632 1545.44 326.408C1563.11 322.184 1578.47 318.152 1591.52 314.312C1593.83 321.608 1595.17 328.712 1595.55 335.624C1595.94 342.536 1596.13 347.912 1596.13 351.752C1596.13 373.64 1591.71 391.496 1582.88 405.32C1574.43 419.144 1562.91 429.32 1548.32 435.848C1534.11 442.376 1518.37 445.64 1501.09 445.64C1496.1 445.64 1491.3 445.64 1486.69 445.64C1482.08 445.256 1477.67 444.872 1473.44 444.488C1469.99 461.768 1466.34 479.816 1462.5 498.632C1459.04 517.448 1455.78 535.688 1452.71 553.352C1449.63 570.632 1446.95 586.184 1444.64 600.008C1442.72 613.448 1441.76 623.624 1441.76 630.536C1441.76 650.12 1443.11 666.632 1445.79 680.072C1448.87 693.512 1453.28 704.84 1459.04 714.056C1436 731.336 1412.19 739.976 1387.62 739.976ZM1676.61 739.976C1650.89 739.976 1632.65 732.68 1621.89 718.088C1611.53 703.112 1606.34 680.648 1606.34 650.696C1606.34 631.496 1609.41 602.696 1615.56 564.296C1622.09 525.512 1631.11 474.248 1642.63 410.504L1612.1 348.872C1630.15 337.352 1649.35 327.56 1669.7 319.496C1690.05 311.048 1710.41 306.824 1730.76 306.824C1743.81 306.824 1753.41 309.896 1759.56 316.04C1766.09 322.184 1770.5 329.864 1772.81 339.08C1786.25 338.696 1801.99 337.16 1820.04 334.472C1838.09 331.784 1857.09 328.328 1877.06 324.104C1897.03 319.88 1916.42 315.08 1935.24 309.704C1937.16 317 1938.31 323.72 1938.69 329.864C1939.46 336.008 1939.85 341.768 1939.85 347.144C1939.85 369.032 1934.85 386.888 1924.87 400.712C1914.89 414.536 1901.45 424.712 1884.55 431.24C1868.04 437.768 1849.8 441.032 1829.83 441.032C1808.33 441.032 1786.82 436.424 1765.32 427.208C1763.01 440.264 1760.52 454.088 1757.83 468.68C1755.14 482.888 1752.26 497.288 1749.19 511.88C1755.33 513.032 1761.29 513.992 1767.05 514.76C1773.19 515.528 1779.33 515.912 1785.48 515.912C1793.16 514.376 1801.8 512.456 1811.4 510.152C1821.38 507.464 1830.02 504.968 1837.32 502.664C1838.85 507.656 1839.62 512.84 1839.62 518.216C1840.01 523.208 1840.2 527.24 1840.2 530.312C1840.2 548.744 1833.86 562.184 1821.19 570.632C1808.9 579.08 1794.31 583.304 1777.41 583.304C1770.12 583.304 1763.21 582.92 1756.68 582.152C1750.15 581 1743.62 579.656 1737.09 578.12C1735.17 589.64 1733.64 600.584 1732.49 610.952C1731.33 621.32 1730.76 633.224 1730.76 646.664H1824.07C1853.25 642.44 1882.63 634.952 1912.2 624.2C1913.73 628.424 1914.69 632.84 1915.08 637.448C1915.46 642.056 1915.65 647.048 1915.65 652.424C1915.65 665.864 1912.97 679.304 1907.59 692.744C1902.21 706.184 1893.96 717.32 1882.82 726.152C1871.69 734.984 1857.67 739.4 1840.77 739.4C1831.94 739.4 1822.92 738.632 1813.7 737.096C1804.49 735.56 1794.89 733.832 1784.9 731.912C1777.61 730.376 1769.73 728.84 1761.29 727.304C1753.22 725.768 1744.2 724.424 1734.21 723.272C1715.78 734.408 1696.58 739.976 1676.61 739.976ZM2086.81 739.976C2061.08 739.976 2042.84 732.68 2032.09 718.088C2021.72 703.112 2016.53 680.648 2016.53 650.696C2016.53 632.264 2019.41 604.808 2025.17 568.328C2030.93 531.848 2039.19 484.04 2049.94 424.904C2041.11 426.056 2029.78 427.784 2015.96 430.088C2002.52 432.392 1988.89 434.888 1975.06 437.576C1961.24 439.88 1949.72 442.184 1940.5 444.488C1938.2 437.192 1936.85 430.088 1936.47 423.176C1936.09 416.264 1935.89 410.888 1935.89 407.048C1935.89 385.16 1939.73 367.304 1947.41 353.48C1955.48 339.656 1966.04 329.48 1979.09 322.952C1992.15 316.424 2006.36 313.16 2021.72 313.16C2041.3 313.16 2060.69 315.08 2079.89 318.92C2099.09 322.376 2118.29 326.024 2137.49 329.864C2157.08 333.704 2177.05 336.008 2197.4 336.776C2211.61 334.088 2227.35 330.632 2244.63 326.408C2262.29 322.184 2277.65 318.152 2290.71 314.312C2293.01 321.608 2294.36 328.712 2294.74 335.624C2295.13 342.536 2295.32 347.912 2295.32 351.752C2295.32 373.64 2290.9 391.496 2282.07 405.32C2273.62 419.144 2262.1 429.32 2247.51 435.848C2233.3 442.376 2217.56 445.64 2200.28 445.64C2195.29 445.64 2190.49 445.64 2185.88 445.64C2181.27 445.256 2176.85 444.872 2172.63 444.488C2169.17 461.768 2165.53 479.816 2161.69 498.632C2158.23 517.448 2154.97 535.688 2151.89 553.352C2148.82 570.632 2146.13 586.184 2143.83 600.008C2141.91 613.448 2140.95 623.624 2140.95 630.536C2140.95 650.12 2142.29 666.632 2144.98 680.072C2148.05 693.512 2152.47 704.84 2158.23 714.056C2135.19 731.336 2111.38 739.976 2086.81 739.976ZM2375.8 739.976C2350.07 739.976 2331.83 732.68 2321.08 718.088C2310.71 703.112 2305.53 680.648 2305.53 650.696C2305.53 631.496 2308.6 602.696 2314.74 564.296C2321.27 525.512 2330.3 474.248 2341.82 410.504L2311.29 348.872C2329.34 337.352 2348.54 327.56 2368.89 319.496C2389.24 311.048 2409.59 306.824 2429.94 306.824C2447.99 306.824 2459.9 312.2 2465.66 322.952C2471.42 333.704 2474.3 346.376 2474.3 360.968C2474.3 367.496 2472.95 378.248 2470.26 393.224C2467.96 407.816 2464.89 424.712 2461.05 443.912C2457.59 463.112 2453.94 482.696 2450.1 502.664H2579.13C2581.43 489.224 2583.93 474.824 2586.62 459.464C2589.69 444.104 2592.76 427.784 2595.83 410.504L2565.3 348.872C2583.35 337.352 2602.55 327.56 2622.9 319.496C2643.26 311.048 2663.61 306.824 2683.96 306.824C2702.01 306.824 2713.91 312.2 2719.67 322.952C2725.43 333.704 2728.31 346.376 2728.31 360.968C2728.31 367.112 2727.16 377.096 2724.86 390.92C2722.94 404.36 2720.25 420.104 2716.79 438.152C2713.34 455.816 2709.69 474.44 2705.85 494.024C2702.39 513.224 2698.94 532.04 2695.48 550.472C2692.02 568.52 2689.14 584.648 2686.84 598.856C2684.92 612.68 2683.96 623.24 2683.96 630.536C2683.96 650.12 2685.3 666.632 2687.99 680.072C2691.06 693.512 2695.48 704.84 2701.24 714.056C2678.2 731.336 2654.39 739.976 2629.82 739.976C2604.09 739.976 2585.85 732.68 2575.1 718.088C2564.73 703.112 2559.54 680.648 2559.54 650.696C2559.54 641.864 2560.12 630.92 2561.27 617.864C2562.81 604.424 2564.92 588.872 2567.61 571.208H2437.43C2435.13 584.264 2433.21 596.168 2431.67 606.92C2430.52 617.288 2429.94 625.16 2429.94 630.536C2429.94 650.12 2431.29 666.632 2433.98 680.072C2437.05 693.512 2441.46 704.84 2447.22 714.056C2424.18 731.336 2400.38 739.976 2375.8 739.976ZM2850.55 739.976C2824.82 739.976 2806.58 732.68 2795.83 718.088C2785.46 703.112 2780.28 680.648 2780.28 650.696C2780.28 631.496 2783.35 602.696 2789.49 564.296C2796.02 525.512 2805.05 474.248 2816.57 410.504L2786.04 348.872C2804.09 337.352 2823.29 327.56 2843.64 319.496C2863.99 311.048 2884.34 306.824 2904.69 306.824C2917.75 306.824 2927.35 309.896 2933.49 316.04C2940.02 322.184 2944.44 329.864 2946.74 339.08C2960.18 338.696 2975.93 337.16 2993.97 334.472C3012.02 331.784 3031.03 328.328 3051 324.104C3070.97 319.88 3090.36 315.08 3109.17 309.704C3111.09 317 3112.25 323.72 3112.63 329.864C3113.4 336.008 3113.78 341.768 3113.78 347.144C3113.78 369.032 3108.79 386.888 3098.81 400.712C3088.82 414.536 3075.38 424.712 3058.49 431.24C3041.97 437.768 3023.73 441.032 3003.77 441.032C2982.26 441.032 2960.76 436.424 2939.25 427.208C2936.95 440.264 2934.45 454.088 2931.77 468.68C2929.08 482.888 2926.2 497.288 2923.13 511.88C2929.27 513.032 2935.22 513.992 2940.98 514.76C2947.13 515.528 2953.27 515.912 2959.41 515.912C2967.09 514.376 2975.73 512.456 2985.33 510.152C2995.32 507.464 3003.96 504.968 3011.25 502.664C3012.79 507.656 3013.56 512.84 3013.56 518.216C3013.94 523.208 3014.13 527.24 3014.13 530.312C3014.13 548.744 3007.8 562.184 2995.13 570.632C2982.84 579.08 2968.25 583.304 2951.35 583.304C2944.05 583.304 2937.14 582.92 2930.61 582.152C2924.09 581 2917.56 579.656 2911.03 578.12C2909.11 589.64 2907.57 600.584 2906.42 610.952C2905.27 621.32 2904.69 633.224 2904.69 646.664H2998.01C3027.19 642.44 3056.57 634.952 3086.13 624.2C3087.67 628.424 3088.63 632.84 3089.01 637.448C3089.4 642.056 3089.59 647.048 3089.59 652.424C3089.59 665.864 3086.9 679.304 3081.53 692.744C3076.15 706.184 3067.89 717.32 3056.76 726.152C3045.62 734.984 3031.61 739.4 3014.71 739.4C3005.88 739.4 2996.85 738.632 2987.64 737.096C2978.42 735.56 2968.82 733.832 2958.84 731.912C2951.54 730.376 2943.67 728.84 2935.22 727.304C2927.16 725.768 2918.13 724.424 2908.15 723.272C2889.72 734.408 2870.52 739.976 2850.55 739.976ZM3207.18 739.976C3181.45 739.976 3163.21 732.68 3152.46 718.088C3142.09 703.112 3136.9 680.648 3136.9 650.696C3136.9 631.496 3139.98 602.696 3146.12 564.296C3152.65 525.512 3161.67 474.248 3173.19 410.504L3142.66 348.872C3160.71 337.352 3179.91 327.56 3200.26 319.496C3220.62 311.432 3240.97 307.4 3261.32 307.4C3271.69 307.4 3283.02 308.936 3295.3 312.008C3307.98 315.08 3317.96 319.304 3325.26 324.68C3354.06 313.16 3379.98 307.4 3403.02 307.4C3427.98 307.4 3448.9 313.16 3465.8 324.68C3483.08 336.2 3496.14 351.176 3504.97 369.608C3513.8 388.04 3518.22 407.816 3518.22 428.936C3518.22 452.744 3512.07 476.36 3499.78 499.784C3487.5 523.208 3468.68 542.6 3443.34 557.96C3451.78 581.768 3461 604.04 3470.98 624.776C3481.35 645.128 3492.1 662.6 3503.24 677.192C3514.38 691.4 3525.32 701.576 3536.07 707.72C3530.7 713.48 3523.21 718.856 3513.61 723.848C3504.01 728.456 3493.83 732.104 3483.08 734.792C3472.33 737.864 3462.54 739.4 3453.7 739.4C3437.19 739.4 3422.6 736.712 3409.93 731.336C3397.26 726.344 3385.93 716.936 3375.94 703.112C3366.34 689.288 3357.13 669.896 3348.3 644.936L3328.14 586.76C3308.17 586.76 3288.01 583.688 3267.66 577.544C3263.43 602.12 3261.32 619.784 3261.32 630.536C3261.32 650.12 3262.66 666.632 3265.35 680.072C3268.42 693.512 3272.84 704.84 3278.6 714.056C3255.56 731.336 3231.75 739.976 3207.18 739.976ZM3293 514.76C3314.89 514.76 3332.94 510.92 3347.14 503.24C3361.74 495.176 3372.49 485.192 3379.4 473.288C3386.7 461 3390.34 448.904 3390.34 437C3390.34 422.408 3385.54 409.544 3375.94 398.408C3366.34 386.888 3351.94 381.128 3332.74 381.128C3322.76 381.128 3312.78 382.472 3302.79 385.16C3301.26 395.528 3299.34 408.008 3297.03 422.6C3294.73 436.808 3292.23 451.976 3289.54 468.104C3286.86 483.848 3283.59 499.208 3279.75 514.184C3281.67 514.568 3283.59 514.76 3285.51 514.76C3287.82 514.76 3290.31 514.76 3293 514.76Z" fill="#E7625D"/>
<path d="M0 300C0 134.315 134.315 0 300 0H724C889.685 0 1024 134.315 1024 300V724C1024 889.685 889.685 1024 724 1024H300C134.315 1024 0 889.685 0 724V300Z" fill="#E7625D"/>
<rect width="700" height="700" transform="translate(160.051 164.313)" fill="#E7625D"/>
<path d="M510.052 455.98V572.646M377.26 264.093C414.952 237.96 460.713 222.646 510.052 222.646C638.919 222.646 743.385 327.113 743.385 455.98V492.049M288.861 381.49C280.987 404.882 276.719 429.933 276.719 455.98V572.646C276.719 678.663 347.423 768.166 444.251 796.573M733.434 640.276C712.158 710.645 658.542 766.972 589.874 791.969M577.863 343.582C558.072 331.616 534.866 324.73 510.052 324.73C437.565 324.73 378.802 383.492 378.802 455.98V542.021M641.302 486.313V572.646C641.302 645.134 582.539 703.896 510.052 703.896C485.3 703.896 462.148 697.045 442.389 685.134" stroke="white" stroke-width="58.3333" stroke-linecap="round" stroke-linejoin="round"/>
</svg>
