<svg width="3289" height="1024" viewBox="0 0 3289 1024" fill="none" xmlns="http://www.w3.org/2000/svg">
<path d="M1139.62 737.976C1113.89 737.976 1095.65 730.68 1084.9 716.088C1074.53 701.112 1069.35 678.648 1069.35 648.696C1069.35 630.264 1072.23 602.808 1077.99 566.328C1083.75 529.848 1092 482.04 1102.75 422.904C1093.92 424.056 1082.59 425.784 1068.77 428.088C1055.33 430.392 1041.7 432.888 1027.87 435.576C1014.05 437.88 1002.53 440.184 993.315 442.488C991.011 435.192 989.667 428.088 989.283 421.176C988.899 414.264 988.707 408.888 988.707 405.048C988.707 383.16 992.547 365.304 1000.23 351.48C1008.29 337.656 1018.85 327.48 1031.91 320.952C1044.96 314.424 1059.17 311.16 1074.53 311.16C1094.11 311.16 1113.51 313.08 1132.71 316.92C1151.91 320.376 1171.11 324.024 1190.31 327.864C1209.89 331.704 1229.86 334.008 1250.21 334.776C1264.42 332.088 1280.16 328.632 1297.44 324.408C1315.11 320.184 1330.47 316.152 1343.52 312.312C1345.83 319.608 1347.17 326.712 1347.55 333.624C1347.94 340.536 1348.13 345.912 1348.13 349.752C1348.13 371.64 1343.71 389.496 1334.88 403.32C1326.43 417.144 1314.91 427.32 1300.32 433.848C1286.11 440.376 1270.37 443.64 1253.09 443.64C1248.1 443.64 1243.3 443.64 1238.69 443.64C1234.08 443.256 1229.67 442.872 1225.44 442.488C1221.99 459.768 1218.34 477.816 1214.5 496.632C1211.04 515.448 1207.78 533.688 1204.71 551.352C1201.63 568.632 1198.95 584.184 1196.64 598.008C1194.72 611.448 1193.76 621.624 1193.76 628.536C1193.76 648.12 1195.11 664.632 1197.79 678.072C1200.87 691.512 1205.28 702.84 1211.04 712.056C1188 729.336 1164.19 737.976 1139.62 737.976ZM1428.61 737.976C1402.89 737.976 1384.65 730.68 1373.89 716.088C1363.53 701.112 1358.34 678.648 1358.34 648.696C1358.34 629.496 1361.41 600.696 1367.56 562.296C1374.09 523.512 1383.11 472.248 1394.63 408.504L1364.1 346.872C1382.15 335.352 1401.35 325.56 1421.7 317.496C1442.05 309.048 1462.41 304.824 1482.76 304.824C1495.81 304.824 1505.41 307.896 1511.56 314.04C1518.09 320.184 1522.5 327.864 1524.81 337.08C1538.25 336.696 1553.99 335.16 1572.04 332.472C1590.09 329.784 1609.09 326.328 1629.06 322.104C1649.03 317.88 1668.42 313.08 1687.24 307.704C1689.16 315 1690.31 321.72 1690.69 327.864C1691.46 334.008 1691.85 339.768 1691.85 345.144C1691.85 367.032 1686.85 384.888 1676.87 398.712C1666.89 412.536 1653.45 422.712 1636.55 429.24C1620.04 435.768 1601.8 439.032 1581.83 439.032C1560.33 439.032 1538.82 434.424 1517.32 425.208C1515.01 438.264 1512.52 452.088 1509.83 466.68C1507.14 480.888 1504.26 495.288 1501.19 509.88C1507.33 511.032 1513.29 511.992 1519.05 512.76C1525.19 513.528 1531.33 513.912 1537.48 513.912C1545.16 512.376 1553.8 510.456 1563.4 508.152C1573.38 505.464 1582.02 502.968 1589.32 500.664C1590.85 505.656 1591.62 510.84 1591.62 516.216C1592.01 521.208 1592.2 525.24 1592.2 528.312C1592.2 546.744 1585.86 560.184 1573.19 568.632C1560.9 577.08 1546.31 581.304 1529.41 581.304C1522.12 581.304 1515.21 580.92 1508.68 580.152C1502.15 579 1495.62 577.656 1489.09 576.12C1487.17 587.64 1485.64 598.584 1484.49 608.952C1483.33 619.32 1482.76 631.224 1482.76 644.664H1576.07C1605.25 640.44 1634.63 632.952 1664.2 622.2C1665.73 626.424 1666.69 630.84 1667.08 635.448C1667.46 640.056 1667.65 645.048 1667.65 650.424C1667.65 663.864 1664.97 677.304 1659.59 690.744C1654.21 704.184 1645.96 715.32 1634.82 724.152C1623.69 732.984 1609.67 737.4 1592.77 737.4C1583.94 737.4 1574.92 736.632 1565.7 735.096C1556.49 733.56 1546.89 731.832 1536.9 729.912C1529.61 728.376 1521.73 726.84 1513.29 725.304C1505.22 723.768 1496.2 722.424 1486.21 721.272C1467.78 732.408 1448.58 737.976 1428.61 737.976ZM1838.81 737.976C1813.08 737.976 1794.84 730.68 1784.09 716.088C1773.72 701.112 1768.53 678.648 1768.53 648.696C1768.53 630.264 1771.41 602.808 1777.17 566.328C1782.93 529.848 1791.19 482.04 1801.94 422.904C1793.11 424.056 1781.78 425.784 1767.96 428.088C1754.52 430.392 1740.89 432.888 1727.06 435.576C1713.24 437.88 1701.72 440.184 1692.5 442.488C1690.2 435.192 1688.85 428.088 1688.47 421.176C1688.09 414.264 1687.89 408.888 1687.89 405.048C1687.89 383.16 1691.73 365.304 1699.41 351.48C1707.48 337.656 1718.04 327.48 1731.09 320.952C1744.15 314.424 1758.36 311.16 1773.72 311.16C1793.3 311.16 1812.69 313.08 1831.89 316.92C1851.09 320.376 1870.29 324.024 1889.49 327.864C1909.08 331.704 1929.05 334.008 1949.4 334.776C1963.61 332.088 1979.35 328.632 1996.63 324.408C2014.29 320.184 2029.65 316.152 2042.71 312.312C2045.01 319.608 2046.36 326.712 2046.74 333.624C2047.13 340.536 2047.32 345.912 2047.32 349.752C2047.32 371.64 2042.9 389.496 2034.07 403.32C2025.62 417.144 2014.1 427.32 1999.51 433.848C1985.3 440.376 1969.56 443.64 1952.28 443.64C1947.29 443.64 1942.49 443.64 1937.88 443.64C1933.27 443.256 1928.85 442.872 1924.63 442.488C1921.17 459.768 1917.53 477.816 1913.69 496.632C1910.23 515.448 1906.97 533.688 1903.89 551.352C1900.82 568.632 1898.13 584.184 1895.83 598.008C1893.91 611.448 1892.95 621.624 1892.95 628.536C1892.95 648.12 1894.29 664.632 1896.98 678.072C1900.05 691.512 1904.47 702.84 1910.23 712.056C1887.19 729.336 1863.38 737.976 1838.81 737.976ZM2127.8 737.976C2102.07 737.976 2083.83 730.68 2073.08 716.088C2062.71 701.112 2057.53 678.648 2057.53 648.696C2057.53 629.496 2060.6 600.696 2066.74 562.296C2073.27 523.512 2082.3 472.248 2093.82 408.504L2063.29 346.872C2081.34 335.352 2100.54 325.56 2120.89 317.496C2141.24 309.048 2161.59 304.824 2181.94 304.824C2199.99 304.824 2211.9 310.2 2217.66 320.952C2223.42 331.704 2226.3 344.376 2226.3 358.968C2226.3 365.496 2224.95 376.248 2222.26 391.224C2219.96 405.816 2216.89 422.712 2213.05 441.912C2209.59 461.112 2205.94 480.696 2202.1 500.664H2331.13C2333.43 487.224 2335.93 472.824 2338.62 457.464C2341.69 442.104 2344.76 425.784 2347.83 408.504L2317.3 346.872C2335.35 335.352 2354.55 325.56 2374.9 317.496C2395.26 309.048 2415.61 304.824 2435.96 304.824C2454.01 304.824 2465.91 310.2 2471.67 320.952C2477.43 331.704 2480.31 344.376 2480.31 358.968C2480.31 365.112 2479.16 375.096 2476.86 388.92C2474.94 402.36 2472.25 418.104 2468.79 436.152C2465.34 453.816 2461.69 472.44 2457.85 492.024C2454.39 511.224 2450.94 530.04 2447.48 548.472C2444.02 566.52 2441.14 582.648 2438.84 596.856C2436.92 610.68 2435.96 621.24 2435.96 628.536C2435.96 648.12 2437.3 664.632 2439.99 678.072C2443.06 691.512 2447.48 702.84 2453.24 712.056C2430.2 729.336 2406.39 737.976 2381.82 737.976C2356.09 737.976 2337.85 730.68 2327.1 716.088C2316.73 701.112 2311.54 678.648 2311.54 648.696C2311.54 639.864 2312.12 628.92 2313.27 615.864C2314.81 602.424 2316.92 586.872 2319.61 569.208H2189.43C2187.13 582.264 2185.21 594.168 2183.67 604.92C2182.52 615.288 2181.94 623.16 2181.94 628.536C2181.94 648.12 2183.29 664.632 2185.98 678.072C2189.05 691.512 2193.46 702.84 2199.22 712.056C2176.18 729.336 2152.38 737.976 2127.8 737.976ZM2602.55 737.976C2576.82 737.976 2558.58 730.68 2547.83 716.088C2537.46 701.112 2532.28 678.648 2532.28 648.696C2532.28 629.496 2535.35 600.696 2541.49 562.296C2548.02 523.512 2557.05 472.248 2568.57 408.504L2538.04 346.872C2556.09 335.352 2575.29 325.56 2595.64 317.496C2615.99 309.048 2636.34 304.824 2656.69 304.824C2669.75 304.824 2679.35 307.896 2685.49 314.04C2692.02 320.184 2696.44 327.864 2698.74 337.08C2712.18 336.696 2727.93 335.16 2745.97 332.472C2764.02 329.784 2783.03 326.328 2803 322.104C2822.97 317.88 2842.36 313.08 2861.17 307.704C2863.09 315 2864.25 321.72 2864.63 327.864C2865.4 334.008 2865.78 339.768 2865.78 345.144C2865.78 367.032 2860.79 384.888 2850.81 398.712C2840.82 412.536 2827.38 422.712 2810.49 429.24C2793.97 435.768 2775.73 439.032 2755.77 439.032C2734.26 439.032 2712.76 434.424 2691.25 425.208C2688.95 438.264 2686.45 452.088 2683.77 466.68C2681.08 480.888 2678.2 495.288 2675.13 509.88C2681.27 511.032 2687.22 511.992 2692.98 512.76C2699.13 513.528 2705.27 513.912 2711.41 513.912C2719.09 512.376 2727.73 510.456 2737.33 508.152C2747.32 505.464 2755.96 502.968 2763.25 500.664C2764.79 505.656 2765.56 510.84 2765.56 516.216C2765.94 521.208 2766.13 525.24 2766.13 528.312C2766.13 546.744 2759.8 560.184 2747.13 568.632C2734.84 577.08 2720.25 581.304 2703.35 581.304C2696.05 581.304 2689.14 580.92 2682.61 580.152C2676.09 579 2669.56 577.656 2663.03 576.12C2661.11 587.64 2659.57 598.584 2658.42 608.952C2657.27 619.32 2656.69 631.224 2656.69 644.664H2750.01C2779.19 640.44 2808.57 632.952 2838.13 622.2C2839.67 626.424 2840.63 630.84 2841.01 635.448C2841.4 640.056 2841.59 645.048 2841.59 650.424C2841.59 663.864 2838.9 677.304 2833.53 690.744C2828.15 704.184 2819.89 715.32 2808.76 724.152C2797.62 732.984 2783.61 737.4 2766.71 737.4C2757.88 737.4 2748.85 736.632 2739.64 735.096C2730.42 733.56 2720.82 731.832 2710.84 729.912C2703.54 728.376 2695.67 726.84 2687.22 725.304C2679.16 723.768 2670.13 722.424 2660.15 721.272C2641.72 732.408 2622.52 737.976 2602.55 737.976ZM2959.18 737.976C2933.45 737.976 2915.21 730.68 2904.46 716.088C2894.09 701.112 2888.9 678.648 2888.9 648.696C2888.9 629.496 2891.98 600.696 2898.12 562.296C2904.65 523.512 2913.67 472.248 2925.19 408.504L2894.66 346.872C2912.71 335.352 2931.91 325.56 2952.26 317.496C2972.62 309.432 2992.97 305.4 3013.32 305.4C3023.69 305.4 3035.02 306.936 3047.3 310.008C3059.98 313.08 3069.96 317.304 3077.26 322.68C3106.06 311.16 3131.98 305.4 3155.02 305.4C3179.98 305.4 3200.9 311.16 3217.8 322.68C3235.08 334.2 3248.14 349.176 3256.97 367.608C3265.8 386.04 3270.22 405.816 3270.22 426.936C3270.22 450.744 3264.07 474.36 3251.78 497.784C3239.5 521.208 3220.68 540.6 3195.34 555.96C3203.78 579.768 3213 602.04 3222.98 622.776C3233.35 643.128 3244.1 660.6 3255.24 675.192C3266.38 689.4 3277.32 699.576 3288.07 705.72C3282.7 711.48 3275.21 716.856 3265.61 721.848C3256.01 726.456 3245.83 730.104 3235.08 732.792C3224.33 735.864 3214.54 737.4 3205.7 737.4C3189.19 737.4 3174.6 734.712 3161.93 729.336C3149.26 724.344 3137.93 714.936 3127.94 701.112C3118.34 687.288 3109.13 667.896 3100.3 642.936L3080.14 584.76C3060.17 584.76 3040.01 581.688 3019.66 575.544C3015.43 600.12 3013.32 617.784 3013.32 628.536C3013.32 648.12 3014.66 664.632 3017.35 678.072C3020.42 691.512 3024.84 702.84 3030.6 712.056C3007.56 729.336 2983.75 737.976 2959.18 737.976ZM3045 512.76C3066.89 512.76 3084.94 508.92 3099.14 501.24C3113.74 493.176 3124.49 483.192 3131.4 471.288C3138.7 459 3142.34 446.904 3142.34 435C3142.34 420.408 3137.54 407.544 3127.94 396.408C3118.34 384.888 3103.94 379.128 3084.74 379.128C3074.76 379.128 3064.78 380.472 3054.79 383.16C3053.26 393.528 3051.34 406.008 3049.03 420.6C3046.73 434.808 3044.23 449.976 3041.54 466.104C3038.86 481.848 3035.59 497.208 3031.75 512.184C3033.67 512.568 3035.59 512.76 3037.51 512.76C3039.82 512.76 3042.31 512.76 3045 512.76Z" fill="#E7625D"/>
<path d="M510.052 455.98V572.646M377.26 264.093C414.952 237.96 460.713 222.646 510.052 222.646C638.919 222.646 743.385 327.113 743.385 455.98V492.049M288.861 381.49C280.987 404.882 276.719 429.933 276.719 455.98V572.646C276.719 678.663 347.423 768.166 444.251 796.573M733.434 640.276C712.158 710.645 658.542 766.972 589.874 791.969M577.863 343.582C558.072 331.616 534.866 324.73 510.052 324.73C437.565 324.73 378.802 383.492 378.802 455.98V542.021M641.302 486.313V572.646C641.302 645.134 582.539 703.896 510.052 703.896C485.3 703.896 462.148 697.045 442.389 685.134" stroke="#E7625D" stroke-width="58.3333" stroke-linecap="round" stroke-linejoin="round"/>
</svg>
