<svg width="1024" height="1024" viewBox="0 0 1024 1024" fill="none" xmlns="http://www.w3.org/2000/svg">
<path d="M0 300C0 134.315 134.315 0 300 0H724C889.685 0 1024 134.315 1024 300V724C1024 889.685 889.685 1024 724 1024H300C134.315 1024 0 889.685 0 724V300Z" fill="#E7625D"/>
<path d="M510.052 455.98V572.646M377.26 264.093C414.952 237.96 460.713 222.646 510.052 222.646C638.919 222.646 743.385 327.113 743.385 455.98V492.049M288.861 381.49C280.987 404.882 276.719 429.933 276.719 455.98V572.646C276.719 678.663 347.423 768.166 444.251 796.573M733.434 640.276C712.158 710.645 658.542 766.972 589.874 791.969M577.863 343.582C558.072 331.616 534.866 324.73 510.052 324.73C437.565 324.73 378.802 383.492 378.802 455.98V542.021M641.302 486.313V572.646C641.302 645.134 582.539 703.896 510.052 703.896C485.3 703.896 462.148 697.045 442.389 685.134" stroke="white" stroke-width="58.3333" stroke-linecap="round" stroke-linejoin="round"/>
</svg>
