<svg width="3538" height="1024" viewBox="0 0 3538 1024" fill="none" xmlns="http://www.w3.org/2000/svg">
<path d="M1388.62 596.976C1362.89 596.976 1344.65 589.68 1333.9 575.088C1323.53 560.112 1318.35 537.648 1318.35 507.696C1318.35 489.264 1321.23 461.808 1326.99 425.328C1332.75 388.848 1341 341.04 1351.75 281.904C1342.92 283.056 1331.59 284.784 1317.77 287.088C1304.33 289.392 1290.7 291.888 1276.87 294.576C1263.05 296.88 1251.53 299.184 1242.31 301.488C1240.01 294.192 1238.67 287.088 1238.28 280.176C1237.9 273.264 1237.71 267.888 1237.71 264.048C1237.71 242.16 1241.55 224.304 1249.23 210.48C1257.29 196.656 1267.85 186.48 1280.91 179.952C1293.96 173.424 1308.17 170.16 1323.53 170.16C1343.11 170.16 1362.51 172.08 1381.71 175.92C1400.91 179.376 1420.11 183.024 1439.31 186.864C1458.89 190.704 1478.86 193.008 1499.21 193.776C1513.42 191.088 1529.16 187.632 1546.44 183.408C1564.11 179.184 1579.47 175.152 1592.52 171.312C1594.83 178.608 1596.17 185.712 1596.55 192.624C1596.94 199.536 1597.13 204.912 1597.13 208.752C1597.13 230.64 1592.71 248.496 1583.88 262.32C1575.43 276.144 1563.91 286.32 1549.32 292.848C1535.11 299.376 1519.37 302.64 1502.09 302.64C1497.1 302.64 1492.3 302.64 1487.69 302.64C1483.08 302.256 1478.67 301.872 1474.44 301.488C1470.99 318.768 1467.34 336.816 1463.5 355.632C1460.04 374.448 1456.78 392.688 1453.71 410.352C1450.63 427.632 1447.95 443.184 1445.64 457.008C1443.72 470.448 1442.76 480.624 1442.76 487.536C1442.76 507.12 1444.11 523.632 1446.79 537.072C1449.87 550.512 1454.28 561.84 1460.04 571.056C1437 588.336 1413.19 596.976 1388.62 596.976ZM1677.61 596.976C1651.89 596.976 1633.65 589.68 1622.89 575.088C1612.53 560.112 1607.34 537.648 1607.34 507.696C1607.34 488.496 1610.41 459.696 1616.56 421.296C1623.09 382.512 1632.11 331.248 1643.63 267.504L1613.1 205.872C1631.15 194.352 1650.35 184.56 1670.7 176.496C1691.05 168.048 1711.41 163.824 1731.76 163.824C1744.81 163.824 1754.41 166.896 1760.56 173.04C1767.09 179.184 1771.5 186.864 1773.81 196.08C1787.25 195.696 1802.99 194.16 1821.04 191.472C1839.09 188.784 1858.09 185.328 1878.06 181.104C1898.03 176.88 1917.42 172.08 1936.24 166.704C1938.16 174 1939.31 180.72 1939.69 186.864C1940.46 193.008 1940.85 198.768 1940.85 204.144C1940.85 226.032 1935.85 243.888 1925.87 257.712C1915.89 271.536 1902.45 281.712 1885.55 288.24C1869.04 294.768 1850.8 298.032 1830.83 298.032C1809.33 298.032 1787.82 293.424 1766.32 284.208C1764.01 297.264 1761.52 311.088 1758.83 325.68C1756.14 339.888 1753.26 354.288 1750.19 368.88C1756.33 370.032 1762.29 370.992 1768.05 371.76C1774.19 372.528 1780.33 372.912 1786.48 372.912C1794.16 371.376 1802.8 369.456 1812.4 367.152C1822.38 364.464 1831.02 361.968 1838.32 359.664C1839.85 364.656 1840.62 369.84 1840.62 375.216C1841.01 380.208 1841.2 384.24 1841.2 387.312C1841.2 405.744 1834.86 419.184 1822.19 427.632C1809.9 436.08 1795.31 440.304 1778.41 440.304C1771.12 440.304 1764.21 439.92 1757.68 439.152C1751.15 438 1744.62 436.656 1738.09 435.12C1736.17 446.64 1734.64 457.584 1733.49 467.952C1732.33 478.32 1731.76 490.224 1731.76 503.664H1825.07C1854.25 499.44 1883.63 491.952 1913.2 481.2C1914.73 485.424 1915.69 489.84 1916.08 494.448C1916.46 499.056 1916.65 504.048 1916.65 509.424C1916.65 522.864 1913.97 536.304 1908.59 549.744C1903.21 563.184 1894.96 574.32 1883.82 583.152C1872.69 591.984 1858.67 596.4 1841.77 596.4C1832.94 596.4 1823.92 595.632 1814.7 594.096C1805.49 592.56 1795.89 590.832 1785.9 588.912C1778.61 587.376 1770.73 585.84 1762.29 584.304C1754.22 582.768 1745.2 581.424 1735.21 580.272C1716.78 591.408 1697.58 596.976 1677.61 596.976ZM2087.81 596.976C2062.08 596.976 2043.84 589.68 2033.09 575.088C2022.72 560.112 2017.53 537.648 2017.53 507.696C2017.53 489.264 2020.41 461.808 2026.17 425.328C2031.93 388.848 2040.19 341.04 2050.94 281.904C2042.11 283.056 2030.78 284.784 2016.96 287.088C2003.52 289.392 1989.89 291.888 1976.06 294.576C1962.24 296.88 1950.72 299.184 1941.5 301.488C1939.2 294.192 1937.85 287.088 1937.47 280.176C1937.09 273.264 1936.89 267.888 1936.89 264.048C1936.89 242.16 1940.73 224.304 1948.41 210.48C1956.48 196.656 1967.04 186.48 1980.09 179.952C1993.15 173.424 2007.36 170.16 2022.72 170.16C2042.3 170.16 2061.69 172.08 2080.89 175.92C2100.09 179.376 2119.29 183.024 2138.49 186.864C2158.08 190.704 2178.05 193.008 2198.4 193.776C2212.61 191.088 2228.35 187.632 2245.63 183.408C2263.29 179.184 2278.65 175.152 2291.71 171.312C2294.01 178.608 2295.36 185.712 2295.74 192.624C2296.13 199.536 2296.32 204.912 2296.32 208.752C2296.32 230.64 2291.9 248.496 2283.07 262.32C2274.62 276.144 2263.1 286.32 2248.51 292.848C2234.3 299.376 2218.56 302.64 2201.28 302.64C2196.29 302.64 2191.49 302.64 2186.88 302.64C2182.27 302.256 2177.85 301.872 2173.63 301.488C2170.17 318.768 2166.53 336.816 2162.69 355.632C2159.23 374.448 2155.97 392.688 2152.89 410.352C2149.82 427.632 2147.13 443.184 2144.83 457.008C2142.91 470.448 2141.95 480.624 2141.95 487.536C2141.95 507.12 2143.29 523.632 2145.98 537.072C2149.05 550.512 2153.47 561.84 2159.23 571.056C2136.19 588.336 2112.38 596.976 2087.81 596.976ZM2376.8 596.976C2351.07 596.976 2332.83 589.68 2322.08 575.088C2311.71 560.112 2306.53 537.648 2306.53 507.696C2306.53 488.496 2309.6 459.696 2315.74 421.296C2322.27 382.512 2331.3 331.248 2342.82 267.504L2312.29 205.872C2330.34 194.352 2349.54 184.56 2369.89 176.496C2390.24 168.048 2410.59 163.824 2430.94 163.824C2448.99 163.824 2460.9 169.2 2466.66 179.952C2472.42 190.704 2475.3 203.376 2475.3 217.968C2475.3 224.496 2473.95 235.248 2471.26 250.224C2468.96 264.816 2465.89 281.712 2462.05 300.912C2458.59 320.112 2454.94 339.696 2451.1 359.664H2580.13C2582.43 346.224 2584.93 331.824 2587.62 316.464C2590.69 301.104 2593.76 284.784 2596.83 267.504L2566.3 205.872C2584.35 194.352 2603.55 184.56 2623.9 176.496C2644.26 168.048 2664.61 163.824 2684.96 163.824C2703.01 163.824 2714.91 169.2 2720.67 179.952C2726.43 190.704 2729.31 203.376 2729.31 217.968C2729.31 224.112 2728.16 234.096 2725.86 247.92C2723.94 261.36 2721.25 277.104 2717.79 295.152C2714.34 312.816 2710.69 331.44 2706.85 351.024C2703.39 370.224 2699.94 389.04 2696.48 407.472C2693.02 425.52 2690.14 441.648 2687.84 455.856C2685.92 469.68 2684.96 480.24 2684.96 487.536C2684.96 507.12 2686.3 523.632 2688.99 537.072C2692.06 550.512 2696.48 561.84 2702.24 571.056C2679.2 588.336 2655.39 596.976 2630.82 596.976C2605.09 596.976 2586.85 589.68 2576.1 575.088C2565.73 560.112 2560.54 537.648 2560.54 507.696C2560.54 498.864 2561.12 487.92 2562.27 474.864C2563.81 461.424 2565.92 445.872 2568.61 428.208H2438.43C2436.13 441.264 2434.21 453.168 2432.67 463.92C2431.52 474.288 2430.94 482.16 2430.94 487.536C2430.94 507.12 2432.29 523.632 2434.98 537.072C2438.05 550.512 2442.46 561.84 2448.22 571.056C2425.18 588.336 2401.38 596.976 2376.8 596.976ZM2851.55 596.976C2825.82 596.976 2807.58 589.68 2796.83 575.088C2786.46 560.112 2781.28 537.648 2781.28 507.696C2781.28 488.496 2784.35 459.696 2790.49 421.296C2797.02 382.512 2806.05 331.248 2817.57 267.504L2787.04 205.872C2805.09 194.352 2824.29 184.56 2844.64 176.496C2864.99 168.048 2885.34 163.824 2905.69 163.824C2918.75 163.824 2928.35 166.896 2934.49 173.04C2941.02 179.184 2945.44 186.864 2947.74 196.08C2961.18 195.696 2976.93 194.16 2994.97 191.472C3013.02 188.784 3032.03 185.328 3052 181.104C3071.97 176.88 3091.36 172.08 3110.17 166.704C3112.09 174 3113.25 180.72 3113.63 186.864C3114.4 193.008 3114.78 198.768 3114.78 204.144C3114.78 226.032 3109.79 243.888 3099.81 257.712C3089.82 271.536 3076.38 281.712 3059.49 288.24C3042.97 294.768 3024.73 298.032 3004.77 298.032C2983.26 298.032 2961.76 293.424 2940.25 284.208C2937.95 297.264 2935.45 311.088 2932.77 325.68C2930.08 339.888 2927.2 354.288 2924.13 368.88C2930.27 370.032 2936.22 370.992 2941.98 371.76C2948.13 372.528 2954.27 372.912 2960.41 372.912C2968.09 371.376 2976.73 369.456 2986.33 367.152C2996.32 364.464 3004.96 361.968 3012.25 359.664C3013.79 364.656 3014.56 369.84 3014.56 375.216C3014.94 380.208 3015.13 384.24 3015.13 387.312C3015.13 405.744 3008.8 419.184 2996.13 427.632C2983.84 436.08 2969.25 440.304 2952.35 440.304C2945.05 440.304 2938.14 439.92 2931.61 439.152C2925.09 438 2918.56 436.656 2912.03 435.12C2910.11 446.64 2908.57 457.584 2907.42 467.952C2906.27 478.32 2905.69 490.224 2905.69 503.664H2999.01C3028.19 499.44 3057.57 491.952 3087.13 481.2C3088.67 485.424 3089.63 489.84 3090.01 494.448C3090.4 499.056 3090.59 504.048 3090.59 509.424C3090.59 522.864 3087.9 536.304 3082.53 549.744C3077.15 563.184 3068.89 574.32 3057.76 583.152C3046.62 591.984 3032.61 596.4 3015.71 596.4C3006.88 596.4 2997.85 595.632 2988.64 594.096C2979.42 592.56 2969.82 590.832 2959.84 588.912C2952.54 587.376 2944.67 585.84 2936.22 584.304C2928.16 582.768 2919.13 581.424 2909.15 580.272C2890.72 591.408 2871.52 596.976 2851.55 596.976ZM3208.18 596.976C3182.45 596.976 3164.21 589.68 3153.46 575.088C3143.09 560.112 3137.9 537.648 3137.9 507.696C3137.9 488.496 3140.98 459.696 3147.12 421.296C3153.65 382.512 3162.67 331.248 3174.19 267.504L3143.66 205.872C3161.71 194.352 3180.91 184.56 3201.26 176.496C3221.62 168.432 3241.97 164.4 3262.32 164.4C3272.69 164.4 3284.02 165.936 3296.3 169.008C3308.98 172.08 3318.96 176.304 3326.26 181.68C3355.06 170.16 3380.98 164.4 3404.02 164.4C3428.98 164.4 3449.9 170.16 3466.8 181.68C3484.08 193.2 3497.14 208.176 3505.97 226.608C3514.8 245.04 3519.22 264.816 3519.22 285.936C3519.22 309.744 3513.07 333.36 3500.78 356.784C3488.5 380.208 3469.68 399.6 3444.34 414.96C3452.78 438.768 3462 461.04 3471.98 481.776C3482.35 502.128 3493.1 519.6 3504.24 534.192C3515.38 548.4 3526.32 558.576 3537.07 564.72C3531.7 570.48 3524.21 575.856 3514.61 580.848C3505.01 585.456 3494.83 589.104 3484.08 591.792C3473.33 594.864 3463.54 596.4 3454.7 596.4C3438.19 596.4 3423.6 593.712 3410.93 588.336C3398.26 583.344 3386.93 573.936 3376.94 560.112C3367.34 546.288 3358.13 526.896 3349.3 501.936L3329.14 443.76C3309.17 443.76 3289.01 440.688 3268.66 434.544C3264.43 459.12 3262.32 476.784 3262.32 487.536C3262.32 507.12 3263.66 523.632 3266.35 537.072C3269.42 550.512 3273.84 561.84 3279.6 571.056C3256.56 588.336 3232.75 596.976 3208.18 596.976ZM3294 371.76C3315.89 371.76 3333.94 367.92 3348.14 360.24C3362.74 352.176 3373.49 342.192 3380.4 330.288C3387.7 318 3391.34 305.904 3391.34 294C3391.34 279.408 3386.54 266.544 3376.94 255.408C3367.34 243.888 3352.94 238.128 3333.74 238.128C3323.76 238.128 3313.78 239.472 3303.79 242.16C3302.26 252.528 3300.34 265.008 3298.03 279.6C3295.73 293.808 3293.23 308.976 3290.54 325.104C3287.86 340.848 3284.59 356.208 3280.75 371.184C3282.67 371.568 3284.59 371.76 3286.51 371.76C3288.82 371.76 3291.31 371.76 3294 371.76Z" fill="#E7625D"/>
<path d="M1536.12 918.4C1532.64 918.4 1529.88 917.38 1527.84 915.34C1525.92 913.42 1524.54 910.66 1523.7 907.06C1522.98 903.46 1522.62 898.96 1522.62 893.56C1522.62 885.76 1522.68 879.88 1522.8 875.92C1522.92 859.96 1522.74 847.06 1522.26 837.22C1521.9 827.38 1520.64 818.02 1518.48 809.14C1516.32 800.26 1512.78 792.94 1507.86 787.18C1512.3 783.94 1517.16 782.32 1522.44 782.32C1528.56 782.32 1533.18 784.48 1536.3 788.8C1539.54 793.12 1541.76 800.14 1542.96 809.86C1544.16 819.58 1544.76 833.44 1544.76 851.44V891.4C1544.76 893.68 1544.7 895.54 1544.58 896.98C1544.58 898.42 1544.58 899.68 1544.58 900.76H1546.92C1562.64 881.44 1574.28 863.86 1581.84 848.02C1589.4 832.06 1594.2 819.64 1596.24 810.76C1596.36 810.4 1596.42 810.1 1596.42 809.86C1596.54 809.5 1596.6 809.2 1596.6 808.96C1596.6 807.88 1596.24 806.5 1595.52 804.82C1594.92 803.14 1594.14 801.28 1593.18 799.24C1592.7 798.28 1592.28 797.38 1591.92 796.54C1591.56 795.7 1591.32 794.98 1591.2 794.38C1593.48 792.22 1595.34 790.78 1596.78 790.06C1598.34 789.22 1600.02 788.8 1601.82 788.8C1605.78 788.8 1608.96 790.18 1611.36 792.94C1613.76 795.58 1614.96 799.24 1614.96 803.92C1614.96 808.48 1614.06 813.34 1612.26 818.5C1610.58 823.54 1608.12 829.06 1604.88 835.06C1601.76 840.94 1596.72 850 1589.76 862.24C1589.4 862.72 1588.98 863.44 1588.5 864.4C1580.1 879.16 1572.96 890.44 1567.08 898.24C1561.2 906.04 1555.86 911.32 1551.06 914.08C1546.38 916.96 1541.4 918.4 1536.12 918.4ZM1613.7 918.4C1608.66 918.4 1604.76 917.2 1602 914.8C1599.36 912.52 1597.5 909.4 1596.42 905.44C1595.34 901.36 1594.62 896.26 1594.26 890.14L1587.24 794.38C1588.56 792.7 1590.48 791.38 1593 790.42C1595.64 789.34 1598.58 788.8 1601.82 788.8L1607.22 801.94L1610.64 900.76H1612.8C1628.64 875.8 1640.1 855.7 1647.18 840.46C1654.38 825.1 1657.98 813.46 1657.98 805.54C1657.98 798.34 1656.42 792.22 1653.3 787.18C1656.9 785.26 1659.78 784 1661.94 783.4C1664.22 782.68 1666.68 782.32 1669.32 782.32C1672.8 782.32 1675.5 783.76 1677.42 786.64C1679.46 789.52 1680.48 793.36 1680.48 798.16C1680.48 804.04 1678.62 812.02 1674.9 822.1C1671.3 832.06 1665.9 844 1658.7 857.92C1651.5 871.72 1642.62 887.32 1632.06 904.72L1635.3 910.84C1633.26 913 1630.14 914.8 1625.94 916.24C1621.86 917.68 1617.78 918.4 1613.7 918.4ZM1735.47 917.5C1722.75 917.5 1712.79 913.6 1705.59 905.8C1698.39 898 1694.79 887.26 1694.79 873.58C1694.79 860.62 1697.61 848.92 1703.25 838.48C1708.89 828.04 1716.69 819.88 1726.65 814C1736.61 808 1747.71 805 1759.95 805C1769.43 805 1776.81 807.28 1782.09 811.84C1787.49 816.4 1790.19 822.7 1790.19 830.74C1790.19 839.26 1787.13 846.58 1781.01 852.7C1774.89 858.7 1765.95 863.32 1754.19 866.56C1742.55 869.68 1728.45 871.24 1711.89 871.24L1714.05 861.16C1731.93 861.28 1745.79 858.64 1755.63 853.24C1765.59 847.72 1770.57 840.04 1770.57 830.2C1770.57 826 1769.31 822.64 1766.79 820.12C1764.27 817.6 1760.97 816.34 1756.89 816.34C1749.81 816.34 1743.21 818.98 1737.09 824.26C1730.97 829.42 1726.11 836.5 1722.51 845.5C1718.91 854.38 1717.11 864.1 1717.11 874.66C1717.11 884.26 1718.91 891.82 1722.51 897.34C1726.11 902.74 1731.03 905.44 1737.27 905.44C1745.07 905.44 1751.43 902.98 1756.35 898.06C1761.27 893.14 1763.97 886.6 1764.45 878.44C1769.13 878.44 1772.73 879.34 1775.25 881.14C1777.77 882.82 1779.03 885.52 1779.03 889.24C1779.03 894.04 1777.11 898.66 1773.27 903.1C1769.43 907.42 1764.15 910.9 1757.43 913.54C1750.83 916.18 1743.51 917.5 1735.47 917.5ZM1844.26 917.5C1837.78 917.5 1832.02 915.76 1826.98 912.28C1822.06 908.8 1818.22 903.88 1815.46 897.52C1812.82 891.04 1811.5 883.6 1811.5 875.2C1811.5 862.24 1814.56 850.42 1820.68 839.74C1826.8 828.94 1835.14 820.48 1845.7 814.36C1856.26 808.12 1867.9 805 1880.62 805C1886.14 805 1891.78 805.48 1897.54 806.44C1898.98 808.96 1899.7 811.78 1899.7 814.9C1886.14 814.9 1874.38 817.48 1864.42 822.64C1854.46 827.8 1846.84 834.94 1841.56 844.06C1836.28 853.06 1833.64 863.26 1833.64 874.66C1833.64 882.82 1835.32 889.18 1838.68 893.74C1842.04 898.3 1846.78 900.58 1852.9 900.58C1864.06 900.58 1873.24 893.5 1880.44 879.34C1887.64 865.06 1893.04 843.58 1896.64 814.9C1897.96 813.22 1899.64 811.9 1901.68 810.94C1903.84 809.98 1906 809.5 1908.16 809.5C1911.16 809.5 1913.5 810.22 1915.18 811.66C1916.98 813.1 1917.88 815.08 1917.88 817.6C1917.88 820.36 1917.46 823.66 1916.62 827.5C1915.9 831.34 1914.64 836.98 1912.84 844.42C1909.96 856.54 1907.74 867.04 1906.18 875.92C1904.62 884.8 1903.84 893.86 1903.84 903.1C1903.84 907.3 1904.92 910.42 1907.08 912.46C1903.36 915.82 1899.34 917.5 1895.02 917.5C1890.94 917.5 1887.82 916.24 1885.66 913.72C1883.5 911.2 1882.42 907.54 1882.42 902.74C1882.42 900.1 1882.84 896.5 1883.68 891.94L1881.88 891.04C1877.56 899.44 1872.1 905.98 1865.5 910.66C1859.02 915.22 1851.94 917.5 1844.26 917.5ZM1978.91 917.5C1973.27 917.5 1968.89 916.36 1965.77 914.08C1962.65 911.8 1960.43 908.08 1959.11 902.92C1957.79 897.64 1957.13 890.2 1957.13 880.6C1957.13 874.84 1957.19 870.58 1957.31 867.82C1957.43 857.26 1957.31 848.74 1956.95 842.26C1956.71 835.78 1955.75 829.66 1954.07 823.9C1952.51 818.02 1949.87 813.22 1946.15 809.5C1949.99 806.5 1954.25 805 1958.93 805C1963.97 805 1967.81 806.74 1970.45 810.22C1973.21 813.7 1975.13 819.4 1976.21 827.32C1977.29 835.12 1977.83 846.22 1977.83 860.62C1977.83 866.98 1977.83 872.56 1977.83 877.36C1977.83 882.04 1977.83 886.06 1977.83 889.42C1977.83 892.54 1977.83 895.12 1977.83 897.16C1977.95 899.08 1977.95 900.7 1977.83 902.02H1979.63C1993.79 881.98 2004.11 865.66 2010.59 853.06C2017.19 840.46 2020.49 830.92 2020.49 824.44C2020.49 818.56 2019.23 813.58 2016.71 809.5C2019.83 807.82 2022.41 806.68 2024.45 806.08C2026.61 805.36 2028.83 805 2031.11 805C2034.23 805 2036.69 806.2 2038.49 808.6C2040.29 811 2041.19 814.24 2041.19 818.32C2041.19 823.12 2039.63 829.48 2036.51 837.4C2033.39 845.2 2028.65 854.68 2022.29 865.84C2015.93 876.88 2007.89 889.72 1998.17 904.36L2000.87 909.76C1998.59 912.04 1995.35 913.9 1991.15 915.34C1986.95 916.78 1982.87 917.5 1978.91 917.5ZM2081.55 917.5C2077.47 917.5 2074.41 916.48 2072.37 914.44C2070.33 912.4 2069.31 909.16 2069.31 904.72C2069.31 899.8 2070.45 891.04 2072.73 878.44C2075.13 865.84 2079.15 846.88 2084.79 821.56L2076.87 812.56C2079.75 810.28 2083.05 808.48 2086.77 807.16C2090.61 805.72 2094.09 805 2097.21 805C2100.81 805 2103.33 805.78 2104.77 807.34C2106.33 808.78 2107.11 811.3 2107.11 814.9C2107.11 815.5 2106.75 817.3 2106.03 820.3C2105.43 823.3 2104.65 826.66 2103.69 830.38C2099.97 845.62 2096.85 859.42 2094.33 871.78C2091.93 884.14 2090.73 894.58 2090.73 903.1C2090.73 907.66 2091.81 910.84 2093.97 912.64C2090.01 915.88 2085.87 917.5 2081.55 917.5ZM2097.57 789.7C2093.73 789.7 2090.67 788.8 2088.39 787C2086.11 785.08 2084.97 782.56 2084.97 779.44C2084.97 777.04 2085.63 774.82 2086.95 772.78C2088.39 770.74 2090.31 769.12 2092.71 767.92C2095.11 766.6 2097.87 765.94 2100.99 765.94C2104.95 765.94 2108.01 766.9 2110.17 768.82C2112.45 770.62 2113.59 773.02 2113.59 776.02C2113.59 779.86 2112.09 783.1 2109.09 785.74C2106.09 788.38 2102.25 789.7 2097.57 789.7ZM2151.51 917.5C2147.31 917.5 2144.19 916.48 2142.15 914.44C2140.23 912.4 2139.27 909.16 2139.27 904.72C2139.27 899.44 2140.83 888.58 2143.95 872.14C2147.19 855.58 2150.85 839.2 2154.93 823L2146.83 814C2149.71 811.48 2153.07 809.44 2156.91 807.88C2160.87 806.32 2164.41 805.54 2167.53 805.54C2171.13 805.54 2173.65 806.26 2175.09 807.7C2176.53 809.14 2177.25 811.72 2177.25 815.44C2177.25 818.56 2176.71 822.1 2175.63 826.06C2174.67 830.02 2173.35 833.68 2171.67 837.04L2173.47 837.94C2185.59 815.98 2201.31 805 2220.63 805C2228.43 805 2234.19 806.98 2237.91 810.94C2241.75 814.78 2243.67 820.78 2243.67 828.94C2243.67 833.74 2243.13 838.72 2242.05 843.88C2241.09 849.04 2239.65 855.52 2237.73 863.32C2235.45 872.44 2233.77 879.94 2232.69 885.82C2231.61 891.58 2231.07 897.34 2231.07 903.1C2231.07 907.42 2231.85 910.54 2233.41 912.46C2229.81 915.82 2225.97 917.5 2221.89 917.5C2217.81 917.5 2214.75 916.48 2212.71 914.44C2210.79 912.4 2209.83 909.16 2209.83 904.72C2209.83 900.16 2210.31 895.06 2211.27 889.42C2212.35 883.66 2213.85 876.22 2215.77 867.1C2217.57 859.54 2218.89 853.24 2219.73 848.2C2220.69 843.04 2221.17 838.6 2221.17 834.88C2221.17 825.16 2217.51 820.3 2210.19 820.3C2201.67 820.3 2193.57 824.38 2185.89 832.54C2178.33 840.58 2172.21 851.02 2167.53 863.86C2162.97 876.7 2160.69 889.78 2160.69 903.1C2160.69 907.54 2161.41 910.66 2162.85 912.46C2159.25 915.82 2155.47 917.5 2151.51 917.5ZM2285.4 955.3C2276.76 955.3 2269.74 953.8 2264.34 950.8C2259.06 947.92 2256.42 944.2 2256.42 939.64C2256.42 937.24 2257.2 934.72 2258.76 932.08C2260.32 929.56 2262.36 927.4 2264.88 925.6C2267.64 930.4 2271 933.94 2274.96 936.22C2279.04 938.62 2283.96 939.82 2289.72 939.82C2298.84 939.82 2308.14 935.92 2317.62 928.12C2327.1 920.44 2334.96 907.3 2341.2 888.7C2347.56 869.98 2350.14 845.38 2348.94 814.9C2351.7 812.5 2353.86 810.94 2355.42 810.22C2357.1 809.38 2358.78 808.96 2360.46 808.96C2362.98 808.96 2364.84 809.56 2366.04 810.76C2367.36 811.84 2368.02 813.52 2368.02 815.8C2368.02 841.6 2365.26 865 2359.74 886C2354.22 906.88 2345.28 923.62 2332.92 936.22C2320.68 948.94 2304.84 955.3 2285.4 955.3ZM2298.72 912.28C2292.12 912.28 2286.24 910.6 2281.08 907.24C2276.04 903.76 2272.08 898.9 2269.2 892.66C2266.44 886.3 2265.06 878.98 2265.06 870.7C2265.06 858.34 2267.76 847.18 2273.16 837.22C2278.68 827.26 2286.54 819.4 2296.74 813.64C2307.06 807.88 2319.12 805 2332.92 805C2339.16 805 2344.8 805.48 2349.84 806.44C2351.28 808.72 2352 811.54 2352 814.9C2338.92 814.9 2327.46 817.24 2317.62 821.92C2307.9 826.48 2300.4 832.9 2295.12 841.18C2289.84 849.46 2287.2 858.88 2287.2 869.44C2287.2 878.2 2288.94 885.04 2292.42 889.96C2296.02 894.76 2301 897.16 2307.36 897.16C2313.12 897.16 2319.18 894.7 2325.54 889.78C2331.9 884.74 2337.36 876.1 2341.92 863.86C2346.48 851.5 2348.76 835.18 2348.76 814.9L2349.66 886.54H2338.14C2333.94 894.58 2328.24 900.88 2321.04 905.44C2313.84 910 2306.4 912.28 2298.72 912.28ZM2474.06 917.5C2470.34 917.5 2467.4 916.42 2465.24 914.26C2463.08 912.1 2462 908.08 2462 902.2C2462 896.32 2462.78 889.6 2464.34 882.04C2465.9 874.48 2468.18 864.76 2471.18 852.88C2473.94 842.08 2475.98 833.5 2477.3 827.14C2478.62 820.66 2479.28 815.08 2479.28 810.4C2479.28 806.08 2478.68 801.22 2477.48 795.82L2477.12 794.38C2479.16 792.22 2481.86 790.54 2485.22 789.34C2488.58 788.02 2491.88 787.36 2495.12 787.36C2498.6 787.36 2501.12 788.14 2502.68 789.7C2504.24 791.26 2505.02 793.84 2505.02 797.44C2505.02 800.32 2504.42 804.04 2503.22 808.6C2502.14 813.16 2500.34 819.58 2497.82 827.86C2493.26 842.98 2489.66 856.18 2487.02 867.46C2484.5 878.62 2483.3 889.9 2483.42 901.3L2489.18 911.02C2487.02 913.18 2484.56 914.8 2481.8 915.88C2479.16 916.96 2476.58 917.5 2474.06 917.5ZM2464.88 834.16C2461.88 834.16 2459.72 833.62 2458.4 832.54C2457.08 831.34 2456.42 829.54 2456.42 827.14C2456.42 824.02 2457.38 821.08 2459.3 818.32C2462.66 819.4 2468.12 819.94 2475.68 819.94C2480.24 819.94 2486.24 819.28 2493.68 817.96C2496.8 817.48 2500.04 817.06 2503.4 816.7C2506.76 816.22 2509.82 815.98 2512.58 815.98C2515.7 815.98 2517.86 816.58 2519.06 817.78C2520.26 818.98 2520.86 820.78 2520.86 823.18C2520.86 826.3 2519.9 829.12 2517.98 831.64C2516.18 831.16 2513.72 830.8 2510.6 830.56C2507.6 830.2 2504.78 830.02 2502.14 830.02C2499.62 830.02 2496.74 830.26 2493.5 830.74C2490.26 831.1 2487.14 831.52 2484.14 832C2475.5 833.44 2469.08 834.16 2464.88 834.16ZM2574.37 917.5C2565.73 917.5 2558.11 915.58 2551.51 911.74C2545.03 907.78 2539.99 902.26 2536.39 895.18C2532.91 887.98 2531.17 879.64 2531.17 870.16C2531.17 857.44 2533.81 846.16 2539.09 836.32C2544.49 826.48 2551.99 818.8 2561.59 813.28C2571.19 807.76 2582.05 805 2594.17 805C2599.21 805 2603.83 805.48 2608.03 806.44C2609.35 808.36 2610.13 811.18 2610.37 814.9C2598.37 814.9 2588.11 817.3 2579.59 822.1C2571.07 826.9 2564.59 833.62 2560.15 842.26C2555.71 850.78 2553.49 860.5 2553.49 871.42C2553.49 882.1 2555.47 890.44 2559.43 896.44C2563.39 902.44 2569.03 905.44 2576.35 905.44C2583.43 905.44 2589.79 903.46 2595.43 899.5C2601.19 895.54 2605.87 889.9 2609.47 882.58C2613.19 875.26 2615.53 866.74 2616.49 857.02C2611.57 853.9 2607.97 850.48 2605.69 846.76C2603.53 843.04 2602.45 838.66 2602.45 833.62C2602.45 830.62 2603.05 827.92 2604.25 825.52C2605.57 823 2607.31 821.08 2609.47 819.76C2611.63 818.32 2614.09 817.6 2616.85 817.6C2622.37 817.6 2626.69 820.06 2629.81 824.98C2632.93 829.9 2634.49 836.74 2634.49 845.5C2634.49 858.7 2631.79 870.82 2626.39 881.86C2621.11 892.78 2613.85 901.48 2604.61 907.96C2595.49 914.32 2585.41 917.5 2574.37 917.5ZM2675.46 955.3C2666.82 955.3 2659.8 953.8 2654.4 950.8C2649.12 947.92 2646.48 944.2 2646.48 939.64C2646.48 937.24 2647.26 934.72 2648.82 932.08C2650.38 929.56 2652.42 927.4 2654.94 925.6C2657.7 930.4 2661.06 933.94 2665.02 936.22C2669.1 938.62 2674.02 939.82 2679.78 939.82C2688.9 939.82 2698.2 935.92 2707.68 928.12C2717.16 920.44 2725.02 907.3 2731.26 888.7C2737.62 869.98 2740.2 845.38 2739 814.9C2741.76 812.5 2743.92 810.94 2745.48 810.22C2747.16 809.38 2748.84 808.96 2750.52 808.96C2753.04 808.96 2754.9 809.56 2756.1 810.76C2757.42 811.84 2758.08 813.52 2758.08 815.8C2758.08 841.6 2755.32 865 2749.8 886C2744.28 906.88 2735.34 923.62 2722.98 936.22C2710.74 948.94 2694.9 955.3 2675.46 955.3ZM2688.78 912.28C2682.18 912.28 2676.3 910.6 2671.14 907.24C2666.1 903.76 2662.14 898.9 2659.26 892.66C2656.5 886.3 2655.12 878.98 2655.12 870.7C2655.12 858.34 2657.82 847.18 2663.22 837.22C2668.74 827.26 2676.6 819.4 2686.8 813.64C2697.12 807.88 2709.18 805 2722.98 805C2729.22 805 2734.86 805.48 2739.9 806.44C2741.34 808.72 2742.06 811.54 2742.06 814.9C2728.98 814.9 2717.52 817.24 2707.68 821.92C2697.96 826.48 2690.46 832.9 2685.18 841.18C2679.9 849.46 2677.26 858.88 2677.26 869.44C2677.26 878.2 2679 885.04 2682.48 889.96C2686.08 894.76 2691.06 897.16 2697.42 897.16C2703.18 897.16 2709.24 894.7 2715.6 889.78C2721.96 884.74 2727.42 876.1 2731.98 863.86C2736.54 851.5 2738.82 835.18 2738.82 814.9L2739.72 886.54H2728.2C2724 894.58 2718.3 900.88 2711.1 905.44C2703.9 910 2696.46 912.28 2688.78 912.28ZM2822.68 917.5C2809.96 917.5 2800 913.6 2792.8 905.8C2785.6 898 2782 887.26 2782 873.58C2782 860.62 2784.82 848.92 2790.46 838.48C2796.1 828.04 2803.9 819.88 2813.86 814C2823.82 808 2834.92 805 2847.16 805C2856.64 805 2864.02 807.28 2869.3 811.84C2874.7 816.4 2877.4 822.7 2877.4 830.74C2877.4 839.26 2874.34 846.58 2868.22 852.7C2862.1 858.7 2853.16 863.32 2841.4 866.56C2829.76 869.68 2815.66 871.24 2799.1 871.24L2801.26 861.16C2819.14 861.28 2833 858.64 2842.84 853.24C2852.8 847.72 2857.78 840.04 2857.78 830.2C2857.78 826 2856.52 822.64 2854 820.12C2851.48 817.6 2848.18 816.34 2844.1 816.34C2837.02 816.34 2830.42 818.98 2824.3 824.26C2818.18 829.42 2813.32 836.5 2809.72 845.5C2806.12 854.38 2804.32 864.1 2804.32 874.66C2804.32 884.26 2806.12 891.82 2809.72 897.34C2813.32 902.74 2818.24 905.44 2824.48 905.44C2832.28 905.44 2838.64 902.98 2843.56 898.06C2848.48 893.14 2851.18 886.6 2851.66 878.44C2856.34 878.44 2859.94 879.34 2862.46 881.14C2864.98 882.82 2866.24 885.52 2866.24 889.24C2866.24 894.04 2864.32 898.66 2860.48 903.1C2856.64 907.42 2851.36 910.9 2844.64 913.54C2838.04 916.18 2830.72 917.5 2822.68 917.5ZM2922.83 917.5C2919.11 917.5 2916.17 916.42 2914.01 914.26C2911.85 912.1 2910.77 908.08 2910.77 902.2C2910.77 896.32 2911.55 889.6 2913.11 882.04C2914.67 874.48 2916.95 864.76 2919.95 852.88C2922.71 842.08 2924.75 833.5 2926.07 827.14C2927.39 820.66 2928.05 815.08 2928.05 810.4C2928.05 806.08 2927.45 801.22 2926.25 795.82L2925.89 794.38C2927.93 792.22 2930.63 790.54 2933.99 789.34C2937.35 788.02 2940.65 787.36 2943.89 787.36C2947.37 787.36 2949.89 788.14 2951.45 789.7C2953.01 791.26 2953.79 793.84 2953.79 797.44C2953.79 800.32 2953.19 804.04 2951.99 808.6C2950.91 813.16 2949.11 819.58 2946.59 827.86C2942.03 842.98 2938.43 856.18 2935.79 867.46C2933.27 878.62 2932.07 889.9 2932.19 901.3L2937.95 911.02C2935.79 913.18 2933.33 914.8 2930.57 915.88C2927.93 916.96 2925.35 917.5 2922.83 917.5ZM2913.65 834.16C2910.65 834.16 2908.49 833.62 2907.17 832.54C2905.85 831.34 2905.19 829.54 2905.19 827.14C2905.19 824.02 2906.15 821.08 2908.07 818.32C2911.43 819.4 2916.89 819.94 2924.45 819.94C2929.01 819.94 2935.01 819.28 2942.45 817.96C2945.57 817.48 2948.81 817.06 2952.17 816.7C2955.53 816.22 2958.59 815.98 2961.35 815.98C2964.47 815.98 2966.63 816.58 2967.83 817.78C2969.03 818.98 2969.63 820.78 2969.63 823.18C2969.63 826.3 2968.67 829.12 2966.75 831.64C2964.95 831.16 2962.49 830.8 2959.37 830.56C2956.37 830.2 2953.55 830.02 2950.91 830.02C2948.39 830.02 2945.51 830.26 2942.27 830.74C2939.03 831.1 2935.91 831.52 2932.91 832C2924.27 833.44 2917.85 834.16 2913.65 834.16ZM2992.54 917.5C2988.34 917.5 2985.22 916.42 2983.18 914.26C2981.14 912.1 2980.12 908.92 2980.12 904.72C2980.12 900.52 2981.14 892.66 2983.18 881.14C2985.22 869.5 2988.64 851.26 2993.44 826.42C2994.64 820.42 2995.84 814.42 2997.04 808.42C2998.24 802.3 2999.38 796.24 3000.46 790.24L2992.54 781.24C2995.3 778.84 2998.6 776.98 3002.44 775.66C3006.4 774.22 3010 773.5 3013.24 773.5C3016.6 773.5 3019 774.28 3020.44 775.84C3021.88 777.28 3022.6 779.8 3022.6 783.4C3022.6 785.68 3022.24 788.68 3021.52 792.4C3020.8 796 3019.6 801.16 3017.92 807.88C3014.68 820.96 3012.34 831.1 3010.9 838.3L3012.7 839.2C3019.3 827.32 3026.92 818.68 3035.56 813.28C3044.2 807.76 3052.9 805 3061.66 805C3069.34 805 3075.1 806.98 3078.94 810.94C3082.78 814.78 3084.7 820.78 3084.7 828.94C3084.7 833.74 3084.16 838.72 3083.08 843.88C3082.12 849.04 3080.68 855.52 3078.76 863.32C3076.48 872.44 3074.8 879.94 3073.72 885.82C3072.64 891.58 3072.1 897.34 3072.1 903.1C3072.1 907.66 3072.88 910.78 3074.44 912.46C3070.72 915.82 3066.88 917.5 3062.92 917.5C3058.72 917.5 3055.66 916.42 3053.74 914.26C3051.82 912.1 3050.86 908.92 3050.86 904.72C3050.86 900.16 3051.34 895.06 3052.3 889.42C3053.38 883.66 3054.88 876.22 3056.8 867.1C3058.6 859.54 3059.92 853.24 3060.76 848.2C3061.72 843.04 3062.2 838.6 3062.2 834.88C3062.2 825.16 3058.54 820.3 3051.22 820.3C3043.9 820.3 3036.34 823.9 3028.54 831.1C3020.86 838.3 3014.44 848.26 3009.28 860.98C3004.12 873.58 3001.54 887.62 3001.54 903.1C3001.54 907.54 3002.26 910.66 3003.7 912.46C3000.22 915.82 2996.5 917.5 2992.54 917.5ZM3152.79 917.5C3140.07 917.5 3130.11 913.6 3122.91 905.8C3115.71 898 3112.11 887.26 3112.11 873.58C3112.11 860.62 3114.93 848.92 3120.57 838.48C3126.21 828.04 3134.01 819.88 3143.97 814C3153.93 808 3165.03 805 3177.27 805C3186.75 805 3194.13 807.28 3199.41 811.84C3204.81 816.4 3207.51 822.7 3207.51 830.74C3207.51 839.26 3204.45 846.58 3198.33 852.7C3192.21 858.7 3183.27 863.32 3171.51 866.56C3159.87 869.68 3145.77 871.24 3129.21 871.24L3131.37 861.16C3149.25 861.28 3163.11 858.64 3172.95 853.24C3182.91 847.72 3187.89 840.04 3187.89 830.2C3187.89 826 3186.63 822.64 3184.11 820.12C3181.59 817.6 3178.29 816.34 3174.21 816.34C3167.13 816.34 3160.53 818.98 3154.41 824.26C3148.29 829.42 3143.43 836.5 3139.83 845.5C3136.23 854.38 3134.43 864.1 3134.43 874.66C3134.43 884.26 3136.23 891.82 3139.83 897.34C3143.43 902.74 3148.35 905.44 3154.59 905.44C3162.39 905.44 3168.75 902.98 3173.67 898.06C3178.59 893.14 3181.29 886.6 3181.77 878.44C3186.45 878.44 3190.05 879.34 3192.57 881.14C3195.09 882.82 3196.35 885.52 3196.35 889.24C3196.35 894.04 3194.43 898.66 3190.59 903.1C3186.75 907.42 3181.47 910.9 3174.75 913.54C3168.15 916.18 3160.83 917.5 3152.79 917.5ZM3245.92 917.5C3241.84 917.5 3238.78 916.24 3236.74 913.72C3234.7 911.32 3233.68 907.6 3233.68 902.56C3233.68 897.64 3235.3 886.84 3238.54 870.16C3241.9 853.36 3245.5 837.64 3249.34 823L3241.42 814C3244.66 811.36 3247.78 809.32 3250.78 807.88C3253.9 806.32 3256.72 805.54 3259.24 805.54C3262.6 805.54 3265.06 806.5 3266.62 808.42C3268.18 810.22 3268.96 812.56 3268.96 815.44C3268.96 819.16 3268.3 823.24 3266.98 827.68C3265.78 832 3263.98 837.1 3261.58 842.98L3263.38 843.88C3267.1 835 3270.88 827.68 3274.72 821.92C3278.68 816.16 3282.64 811.9 3286.6 809.14C3290.68 806.26 3294.76 804.82 3298.84 804.82C3302.8 804.82 3305.74 805.72 3307.66 807.52C3309.7 809.2 3310.72 811.84 3310.72 815.44C3310.72 819.4 3309.16 822.58 3306.04 824.98C3302.92 827.38 3298.84 828.58 3293.8 828.58C3287.44 828.58 3281.26 832.18 3275.26 839.38C3269.26 846.58 3264.4 855.94 3260.68 867.46C3256.96 878.98 3255.1 890.86 3255.1 903.1C3255.1 907.54 3255.82 910.66 3257.26 912.46C3253.66 915.82 3249.88 917.5 3245.92 917.5Z" fill="#E7625D"/>
<path d="M0 300C0 134.315 134.315 0 300 0H724C889.685 0 1024 134.315 1024 300V724C1024 889.685 889.685 1024 724 1024H300C134.315 1024 0 889.685 0 724V300Z" fill="#E7625D"/>
<path d="M510.052 455.98V572.646M377.26 264.093C414.952 237.96 460.713 222.646 510.052 222.646C638.919 222.646 743.385 327.113 743.385 455.98V492.049M288.861 381.49C280.987 404.882 276.719 429.933 276.719 455.98V572.646C276.719 678.663 347.423 768.166 444.251 796.573M733.434 640.276C712.158 710.645 658.542 766.972 589.874 791.969M577.863 343.582C558.072 331.616 534.866 324.73 510.052 324.73C437.565 324.73 378.802 383.492 378.802 455.98V542.021M641.302 486.313V572.646C641.302 645.134 582.539 703.896 510.052 703.896C485.3 703.896 462.148 697.045 442.389 685.134" stroke="white" stroke-width="58.3333" stroke-linecap="round" stroke-linejoin="round"/>
</svg>
